<svg xmlns="http://www.w3.org/2000/svg" viewBox="0 0 119.66 40"><path fill="#a6a6a6" d="M110.44 0H8.46l-.92.02a13.25 13.22 0 0 0-2 .17 6.68 6.67 0 0 0-1.91.63A6.46 6.44 0 0 0 2 2 6.28 6.26 0 0 0 .82 3.62a6.62 6.6 0 0 0-.63 1.9 13.03 13 0 0 0-.17 2L0 8.44v23.12c0 .31 0 .61.02.92a13.03 13 0 0 0 .18 2 6.6 6.59 0 0 0 .62 1.9A6.23 6.2 0 0 0 2 38a6.3 6.27 0 0 0 1.63 1.18 6.72 6.7 0 0 0 1.9.63 13.5 13.46 0 0 0 2.01.18 40.73 40.73 0 0 0 2.02.01h101.98l.92-.01a13.32 13.28 0 0 0 2-.18 6.82 6.8 0 0 0 1.91-.63A6.3 6.28 0 0 0 118 38a6.41 6.4 0 0 0 1.18-1.61 6.62 6.6 0 0 0 .62-1.9 13.54 13.5 0 0 0 .19-2.01v-.92l.01-1.1V8.44l-.01-.92a13.55 13.5 0 0 0-.19-2 6.64 6.62 0 0 0-.62-1.9 6.48 6.47 0 0 0-2.8-2.8 6.79 6.77 0 0 0-1.92-.63 13.08 13.04 0 0 0-2-.17l-.93-.02h-1.09Z"/><path fill="#212121" d="m8.47 39.13-.9-.01a12.72 12.69 0 0 1-1.88-.17 5.9 5.88 0 0 1-1.66-.55 5.42 5.4 0 0 1-1.4-1.01 5.33 5.32 0 0 1-1.03-1.4 5.74 5.72 0 0 1-.54-1.66 12.45 12.41 0 0 1-.17-1.87l-.02-.91V8.45l.02-.9a12.4 12.37 0 0 1 .16-1.87 5.77 5.76 0 0 1 .55-1.66 5.39 5.37 0 0 1 1.02-1.4 5.58 5.57 0 0 1 1.4-1.02 5.84 5.82 0 0 1 1.66-.55A12.62 12.59 0 0 1 7.56.9l.9-.01h103.99a12.42 12.39 0 0 1 1.87.17 5.95 5.94 0 0 1 1.67.55 5.61 5.6 0 0 1 2.42 2.42 5.78 5.76 0 0 1 .54 1.65 13.03 13 0 0 1 .17 1.88v.9l.01 1.09v22.93a12.77 12.73 0 0 1-.18 1.85 5.76 5.74 0 0 1-.54 1.67 5.5 5.48 0 0 1-1.02 1.39 5.43 5.41 0 0 1-1.4 1.02 5.88 5.86 0 0 1-1.67.55 12.58 12.54 0 0 1-1.88.16l-.9.02h-1.09Z"/><path fill="#fff" d="M24.77 20.3a4.95 4.95 0 0 1 2.35-4.15 5.07 5.07 0 0 0-3.99-2.16c-1.68-.17-3.3 1-4.16 1-.87 0-2.19-.98-3.6-.95a5.32 5.32 0 0 0-4.48 2.73c-1.93 3.34-.5 8.27 1.36 10.97.93 1.33 2.01 2.8 3.43 2.76 1.39-.06 1.9-.89 3.58-.89 1.66 0 2.14.89 3.59.85 1.49-.02 2.42-1.33 3.32-2.67a10.96 10.96 0 0 0 1.52-3.09 4.78 4.78 0 0 1-2.92-4.4Zm-2.73-8.09a4.87 4.87 0 0 0 1.11-3.49 4.96 4.96 0 0 0-3.2 1.66 4.64 4.64 0 0 0-1.15 3.36 4.1 4.1 0 0 0 3.24-1.53ZM42.3 27.14h-4.73l-1.14 3.36h-2l4.48-12.42H41l4.48 12.42h-2.04Zm-4.24-1.55h3.75l-1.85-5.45h-.05Zm17.1.38c0 2.81-1.5 4.62-3.78 4.62a3.07 3.07 0 0 1-2.85-1.58h-.04v4.48h-1.86V21.44h1.8v1.5h.03a3.21 3.21 0 0 1 2.89-1.6c2.3 0 3.8 1.82 3.8 4.63Zm-1.91 0c0-1.83-.95-3.04-2.4-3.04-1.41 0-2.37 1.23-2.37 3.04 0 1.82.96 3.05 2.38 3.05 1.44 0 2.39-1.2 2.39-3.05Zm11.88 0c0 2.81-1.51 4.62-3.78 4.62a3.07 3.07 0 0 1-2.85-1.58h-.04v4.48H56.6V21.44h1.8v1.5h.03a3.21 3.21 0 0 1 2.88-1.6c2.3 0 3.82 1.82 3.82 4.63Zm-1.91 0c0-1.83-.95-3.04-2.4-3.04-1.42 0-2.37 1.23-2.37 3.04 0 1.82.95 3.05 2.37 3.05 1.45 0 2.4-1.2 2.4-3.05Zm8.5 1.07c.13 1.23 1.32 2.04 2.96 2.04 1.57 0 2.7-.81 2.7-1.92 0-.97-.69-1.54-2.3-1.94l-1.6-.39c-2.29-.55-3.34-1.61-3.34-3.34 0-2.15 1.86-3.62 4.51-3.62 2.63 0 4.43 1.47 4.49 3.62h-1.88c-.11-1.24-1.13-2-2.63-2s-2.52.77-2.52 1.87c0 .87.65 1.4 2.25 1.79l1.37.33c2.55.6 3.6 1.63 3.6 3.45 0 2.32-1.84 3.77-4.79 3.77-2.75 0-4.61-1.42-4.73-3.66Zm11.63-7.74v2.14h1.72v1.47h-1.72v5c0 .77.34 1.13 1.1 1.13a5.8 5.8 0 0 0 .61-.04v1.46a5.1 5.1 0 0 1-1.03.09c-1.83 0-2.55-.69-2.55-2.45v-5.19h-1.32v-1.47h1.32V19.3Zm2.72 6.67c0-2.85 1.67-4.64 4.29-4.64 2.63 0 4.3 1.8 4.3 4.64 0 2.86-1.67 4.64-4.3 4.64s-4.3-1.78-4.3-4.64Zm6.7 0c0-1.95-.9-3.1-2.41-3.1-1.5 0-2.4 1.15-2.4 3.1 0 1.96.9 3.1 2.4 3.1s2.4-1.14 2.4-3.1Zm3.42-4.53h1.77v1.54H98a2.16 2.16 0 0 1 2.18-1.63 2.87 2.87 0 0 1 .64.07v1.74a2.6 2.6 0 0 0-.84-.12 1.87 1.87 0 0 0-1.93 2.09v5.37h-1.86Zm13.2 6.4c-.25 1.64-1.85 2.77-3.9 2.77-2.64 0-4.27-1.77-4.27-4.6 0-2.84 1.64-4.68 4.19-4.68 2.5 0 4.08 1.72 4.08 4.47v.63h-6.4v.12a2.36 2.36 0 0 0 2.44 2.56 2.05 2.05 0 0 0 2.1-1.27Zm-6.29-2.7h4.53a2.18 2.18 0 0 0-2.22-2.3 2.3 2.3 0 0 0-2.3 2.3ZM39.66 14.7v-2.62H36.6v2.62h-.93V8.73h.93v2.5h3.06v-2.5h.92v5.97Zm2.19-1.28c0-.8.6-1.27 1.67-1.34l1.22-.07v-.39c0-.47-.31-.74-.92-.74-.5 0-.84.18-.94.5h-.86c.1-.78.82-1.27 1.84-1.27 1.13 0 1.77.56 1.77 1.51v3.08h-.86v-.63h-.07a1.52 1.52 0 0 1-1.35.7 1.36 1.36 0 0 1-1.5-1.35Zm.58-4.4a.55.55 0 1 1 .55.56.55.55 0 0 1-.55-.56Zm2.31 4.02v-.38l-1.1.07c-.62.05-.9.26-.9.65 0 .4.35.64.84.64a1.06 1.06 0 0 0 1.16-.98Zm-.55-4.02a.55.55 0 1 1 1.1 0 .55.55 0 1 1-1.1 0Zm2.83 1.18h.85v.72h.07a1.36 1.36 0 0 1 2.5 0h.06a1.46 1.46 0 0 1 1.37-.81 1.34 1.34 0 0 1 1.44 1.49v3.1h-.89v-2.87c0-.61-.29-.9-.87-.9a.91.91 0 0 0-.95.94v2.83h-.87v-2.96a.79.79 0 0 0-.87-.82.97.97 0 0 0-.95 1.02v2.76H47Zm8.87-1.13v1.15h.97v.74h-.97v2.32c0 .47.2.68.63.68a2.97 2.97 0 0 0 .34-.02v.74a2.92 2.92 0 0 1-.48.04c-.99 0-1.38-.34-1.38-1.21v-2.55h-.72v-.74H55V9.07Zm1.89 4.35c0-.8.6-1.27 1.67-1.34l1.22-.07v-.39c0-.47-.31-.74-.92-.74-.5 0-.84.18-.94.5h-.86c.1-.78.82-1.27 1.84-1.27 1.13 0 1.77.56 1.77 1.51v3.08h-.86v-.63h-.07a1.52 1.52 0 0 1-1.35.7 1.36 1.36 0 0 1-1.5-1.35Zm2.9-.38v-.38l-1.1.07c-.63.05-.9.26-.9.65 0 .4.34.64.83.64a1.06 1.06 0 0 0 1.16-.98Zm4.6-4.18a.58.58 0 1 1 .57.55.55.55 0 0 1-.57-.55Zm.13 1.34h.88v4.5h-.88Z"/></svg>