<svg xmlns="http://www.w3.org/2000/svg" viewBox="0 0 120.001 40"><path fill="#212121" d="M115.557 40H4.445C2 40 0 37.75 0 35V5c0-2.75 2-5 4.444-5h111.113C118 0 120 2.25 120 5v30c0 2.75-2 5-4.444 5"/><path fill="#a2a2a1" d="M115.557 0H4.445C2 0 0 2.25 0 5v30c0 2.75 2 5 4.444 5h111.113C118 40 120 37.75 120 35V5c0-2.75-2-5-4.444-5m0 .8c2.059 0 3.733 1.884 3.733 4.2v30c0 2.316-1.674 4.2-3.733 4.2H4.445C2.385 39.2.71 37.316.71 35V5C.711 2.684 2.386.8 4.444.8h111.113"/><path fill="#eb3131" d="M18.415 20.335 8.952 30.38l.001.006a2.555 2.555 0 0 0 3.766 1.541l.03-.017 10.653-6.147-4.986-5.428"/><path fill="#f6b60b" d="m27.99 18.625-.009-.006-4.6-2.666-5.18 4.61 5.2 5.199 4.574-2.64a2.56 2.56 0 0 0 .015-4.497"/><path fill="#3bad49" d="m18.485 20.848 4.898-4.897-10.64-6.169a2.558 2.558 0 0 0-1.32-.365c-1.183 0-2.18.804-2.471 1.896l-.001.003 9.534 9.532"/><path fill="#5778c5" d="M8.951 11.316a2.51 2.51 0 0 0-.087.657v17.75c0 .227.03.448.088.657l9.789-9.788-9.79-9.277"/><path fill="#fff" d="M95.055 29.736h1.659V18.624h-1.659Zm14.94-7.11-1.901 4.819h-.057l-1.974-4.818h-1.786l2.959 6.733-1.687 3.746h1.73l4.56-10.48Zm-9.406 5.848c-.544 0-1.302-.272-1.302-.944 0-.858.943-1.186 1.759-1.186.728 0 1.072.158 1.515.372a2.01 2.01 0 0 1-1.972 1.758m.2-6.09c-1.201 0-2.446.529-2.96 1.7l1.472.616c.315-.615.901-.815 1.516-.815.858 0 1.73.514 1.744 1.429v.114a3.69 3.69 0 0 0-1.73-.428c-1.586 0-3.202.872-3.202 2.502 0 1.487 1.301 2.444 2.759 2.444 1.115 0 1.73-.5 2.116-1.086h.057v.858h1.601v-4.261c0-1.973-1.472-3.073-3.373-3.073M90.538 23.98h-2.36v-3.81h2.36c1.24 0 1.944 1.027 1.944 1.905 0 .86-.704 1.905-1.944 1.905m-.043-5.356h-3.974v11.112h1.658v-4.21h2.316c1.838 0 3.646-1.331 3.646-3.451s-1.808-3.451-3.646-3.451m-21.672 9.852c-1.146 0-2.105-.96-2.105-2.277 0-1.331.96-2.306 2.105-2.306 1.131 0 2.019.975 2.019 2.306 0 1.317-.888 2.277-2.02 2.277m1.905-5.227h-.057c-.372-.444-1.088-.846-1.99-.846-1.89 0-3.623 1.662-3.623 3.796 0 2.12 1.732 3.766 3.623 3.766.902 0 1.618-.4 1.99-.86h.057v.545c0 1.447-.773 2.22-2.019 2.22-1.017 0-1.647-.73-1.905-1.346l-1.446.601c.415 1.003 1.518 2.234 3.351 2.234 1.948 0 3.595-1.145 3.595-3.938v-6.788h-1.576Zm2.72 6.487h1.662V18.623h-1.661Zm4.111-3.666c-.043-1.461 1.132-2.205 1.976-2.205.66 0 1.218.329 1.404.802Zm5.156-1.26c-.316-.846-1.275-2.407-3.237-2.407-1.947 0-3.565 1.533-3.565 3.782 0 2.12 1.603 3.78 3.751 3.78 1.733 0 2.735-1.06 3.151-1.675l-1.289-.86c-.43.63-1.017 1.046-1.862 1.046-.844 0-1.446-.387-1.833-1.145l5.055-2.092ZM42.44 23.564v1.604h3.837c-.115.902-.415 1.56-.873 2.019-.559.559-1.433 1.174-2.964 1.174-2.364 0-4.211-1.904-4.211-4.268 0-2.362 1.847-4.266 4.21-4.266 1.275 0 2.206.5 2.893 1.144l1.132-1.13c-.96-.917-2.234-1.619-4.024-1.619-3.237 0-5.958 2.636-5.958 5.871 0 3.238 2.721 5.872 5.958 5.872 1.746 0 3.063-.573 4.095-1.647 1.06-1.06 1.389-2.548 1.389-3.752a5.19 5.19 0 0 0-.086-1.002Zm9.847 4.912c-1.145 0-2.133-.945-2.133-2.291 0-1.361.988-2.292 2.133-2.292 1.146 0 2.134.93 2.134 2.292 0 1.346-.988 2.29-2.134 2.29m0-6.072c-2.091 0-3.795 1.59-3.795 3.782 0 2.176 1.704 3.78 3.795 3.78 2.09 0 3.795-1.604 3.795-3.78 0-2.191-1.704-3.782-3.795-3.782m8.279 6.073c-1.146 0-2.134-.945-2.134-2.291 0-1.361.988-2.292 2.134-2.292s2.133.93 2.133 2.292c0 1.346-.987 2.29-2.133 2.29m0-6.072c-2.09 0-3.795 1.59-3.795 3.782 0 2.176 1.704 3.78 3.795 3.78 2.09 0 3.795-1.604 3.795-3.78 0-2.191-1.704-3.782-3.795-3.782M37.142 9.207h.85v4.732h2.383v.805h-3.233V9.207m7.188 3.325-.619-1.698-.209-.634h-.046l-.21.634-.618 1.698Zm-1.338-3.325h.966l2.096 5.537h-.936l-.51-1.423H42.35l-.51 1.423h-.936l2.088-5.537m21.346 0h1.006l2.505 4.067h.047l-.047-1.067v-3h.843v5.537h-.881l-2.63-4.277h-.046l.046 1.067v3.21h-.843V9.207m5.762 0h3.356v.804H70.95v1.562h2.258v.804H70.95v1.562h2.506v.805H70.1V9.207m6.294 4.732c.63 0 1.118-.174 1.466-.522.348-.348.522-.828.522-1.442 0-.613-.174-1.094-.522-1.442-.348-.348-.836-.522-1.466-.522h-.897v3.928Zm-1.747-4.732h1.77c.573 0 1.072.115 1.497.347.426.233.753.559.982.979.23.42.344.9.344 1.442 0 .541-.114 1.022-.344 1.442-.23.42-.556.747-.982.979-.425.232-.924.348-1.496.348h-1.771V9.207m9.295 2.582c.284 0 .512-.089.684-.266a.866.866 0 0 0 .26-.623.867.867 0 0 0-.26-.623c-.172-.177-.4-.266-.684-.266h-1.075v1.778Zm-1.926-2.582h1.903c.33 0 .633.072.908.216.276.144.495.346.658.603.162.258.244.55.244.874 0 .325-.082.616-.244.874a1.685 1.685 0 0 1-.658.603 1.93 1.93 0 0 1-.908.217h-1.052v2.15h-.85V9.207m6.124-.538a.32.32 0 0 0-.093.228c0 .088.031.164.093.228a.299.299 0 0 0 .224.097.31.31 0 0 0 .229-.097.312.312 0 0 0 .096-.228.313.313 0 0 0-.096-.228.312.312 0 0 0-.453 0Zm1.075 3.863-.61-1.694-.217-.634h-.047l-.209.634-.61 1.694Zm1.725 2.212h-.928l-.519-1.423h-2.25l-.51 1.423h-.936l1.957-5.19a.822.822 0 0 1-.213-.293.903.903 0 0 1-.074-.364c0-.252.087-.465.26-.638A.866.866 0 0 1 88.365 8c.248 0 .46.088.639.263a.858.858 0 0 1 .266.634.87.87 0 0 1-.286.657l1.957 5.19m-42.543-.811c.629 0 1.117-.174 1.465-.522.348-.348.522-.829.522-1.442 0-.614-.174-1.095-.522-1.443-.348-.348-.836-.522-1.465-.522H47.5v3.929ZM46.65 9.2h1.77c.573 0 1.072.116 1.498.348.425.232.752.558.982.978.23.42.344.901.344 1.443 0 .54-.115 1.022-.344 1.442-.23.42-.557.746-.983.978-.425.232-.924.348-1.496.348h-1.77V9.2m6.957 4.764c.63 0 1.118-.174 1.466-.522.348-.348.522-.828.522-1.442s-.174-1.095-.522-1.442c-.348-.349-.836-.522-1.466-.522h-.897v3.928Zm-1.747-4.733h1.77c.573 0 1.072.116 1.497.348.426.232.753.559.982.978.23.42.344.902.344 1.443s-.114 1.022-.344 1.442c-.23.42-.556.746-.982.978-.425.233-.924.348-1.496.348H51.86V9.231m8.119 3.294-.619-1.698-.209-.634h-.046l-.209.634-.619 1.698Zm-1.338-3.326h.967l2.095 5.537h-.935l-.51-1.423H58l-.51 1.423h-.936L58.642 9.2"/></svg>